<svg width="1000" height="1000" viewBox="0 0 1000 1000" fill="none" xmlns="http://www.w3.org/2000/svg">
<rect width="1000" height="1000" rx="500" fill="#D9D9D9"/>
<path d="M367 566.667V600M633.667 566.667V600M267 466.667H500.333M500.333 466.667H733.667M500.333 466.667V300M300.333 800L367 700M633.667 700L700.333 800M500.333 300H267M500.333 300H733.667M267 300V633.333C267 670.153 296.848 700 333.667 700H667C703.82 700 733.667 670.153 733.667 633.333V300M267 300C267 244.772 311.772 200 367 200H633.667C688.897 200 733.667 244.772 733.667 300" stroke="black" stroke-width="66.6667" stroke-linecap="round" stroke-linejoin="round"/>
</svg>
